<svg width="149" height="149" viewBox="0 0 149 149" fill="none" xmlns="http://www.w3.org/2000/svg">
<path fill-rule="evenodd" clip-rule="evenodd" d="M142.754 111.563L148.146 7.37555L7.40755 0.0917146L0.1018 141.253L104.341 146.648L142.752 111.56L142.754 111.563Z" fill="#003BDE"/>
<path fill-rule="evenodd" clip-rule="evenodd" d="M103.419 146.775C103.419 146.775 104.123 147.73 110.196 143.636C116.269 139.543 136.358 121.038 140.385 115.373C144.411 109.709 142.405 110.819 142.405 110.819C142.405 110.819 140.582 111.971 138.564 112.764C136.621 113.527 134.823 113.911 132.203 114.258C129.669 114.593 123.781 114.322 120.824 114.325C117.867 114.329 110.27 113.464 110.27 113.464C110.27 113.464 110.672 130.879 110.047 134.272C109.422 137.665 109.51 139.01 108.39 140.677C107.27 142.345 105.987 144.093 104.975 145.088C103.962 146.084 103.419 146.775 103.419 146.775Z" fill="url(#paint0_linear_202_4)"/>
<path fill-rule="evenodd" clip-rule="evenodd" d="M103.592 146.78C103.592 146.78 104.296 147.734 110.369 143.641C116.442 139.547 136.531 121.043 140.557 115.378C144.584 109.713 142.578 110.824 142.578 110.824C142.578 110.824 139.715 114.24 138.198 115.283C136.681 116.326 134.953 117.15 132.676 117.685C130.399 118.22 126.075 118.172 123.118 118.176C120.16 118.18 112.986 117.682 112.986 117.682C112.986 117.682 113.2 131.065 112.575 134.458C111.95 137.852 111.622 138.655 110.502 140.323C109.382 141.99 106.159 144.098 105.147 145.093C104.134 146.088 103.592 146.78 103.592 146.78Z" fill="#003BDE"/>
<path fill-rule="evenodd" clip-rule="evenodd" d="M103.543 146.73C103.543 146.73 104.247 147.684 110.319 143.591C116.392 139.497 136.481 120.992 140.508 115.328C144.535 109.663 142.529 110.773 142.529 110.773C142.529 110.773 139.666 114.19 138.149 115.233C136.632 116.276 134.904 117.1 132.627 117.635C130.35 118.17 126.026 118.122 123.068 118.126C120.111 118.13 112.937 117.631 112.937 117.631C112.937 117.631 113.151 131.015 112.526 134.408C111.901 137.801 111.572 138.605 110.452 140.272C109.332 141.94 106.11 144.047 105.098 145.043C104.085 146.038 103.543 146.73 103.543 146.73Z" fill="url(#paint1_linear_202_4)"/>
<defs>
<linearGradient id="paint0_linear_202_4" x1="131.383" y1="138.135" x2="108.223" y2="112.532" gradientUnits="userSpaceOnUse">
<stop/>
<stop offset="1" stop-opacity="0"/>
</linearGradient>
<linearGradient id="paint1_linear_202_4" x1="134.592" y1="139.612" x2="121.863" y2="126.676" gradientUnits="userSpaceOnUse">
<stop stop-color="#FFFF91"/>
<stop offset="1" stop-opacity="0"/>
</linearGradient>
</defs>
</svg>
