<svg width="818" height="174" viewBox="0 0 818 174" fill="none" xmlns="http://www.w3.org/2000/svg">
<path d="M211.312 87.625H202.062L200.062 79.5C198.562 78.0833 196.667 76.9583 194.375 76.125C192.125 75.25 189.562 74.8125 186.687 74.8125C182.312 74.8125 179.062 75.7708 176.937 77.6875C174.812 79.6042 173.75 81.9167 173.75 84.625C173.75 87.2917 174.687 89.3958 176.562 90.9375C178.437 92.4792 182.25 93.8542 188 95.0625C196.542 96.8958 202.896 99.3958 207.062 102.562C211.229 105.688 213.312 109.896 213.312 115.188C213.312 121.188 210.875 126.042 206 129.75C201.167 133.458 194.833 135.312 187 135.312C181.875 135.312 177.271 134.729 173.187 133.562C169.104 132.354 165.458 130.625 162.25 128.375L162.187 112.938H171.437L173.75 122C175.167 123.292 177.083 124.229 179.5 124.812C181.958 125.396 184.458 125.688 187 125.688C191.375 125.688 194.792 124.812 197.25 123.062C199.75 121.271 201 118.938 201 116.062C201 113.354 199.958 111.125 197.875 109.375C195.833 107.625 191.937 106.104 186.187 104.812C177.979 103.021 171.792 100.583 167.625 97.5C163.458 94.4167 161.375 90.25 161.375 85C161.375 79.5 163.708 74.8125 168.375 70.9375C173.083 67.0625 179.187 65.125 186.687 65.125C191.812 65.125 196.417 65.7917 200.5 67.125C204.583 68.4583 207.979 70.3125 210.687 72.6875L211.312 87.625ZM223 126.125L233.187 124.375V76.0625L223 74.3125V66.375H244.187L245.062 76.4375C247.312 72.8542 250.125 70.0833 253.5 68.125C256.917 66.125 260.792 65.125 265.125 65.125C272.417 65.125 278.062 67.2708 282.062 71.5625C286.062 75.8125 288.062 82.3958 288.062 91.3125V124.375L298.25 126.125V134H265.562V126.125L275.75 124.375V91.5625C275.75 85.6042 274.562 81.375 272.187 78.875C269.854 76.375 266.271 75.125 261.437 75.125C257.896 75.125 254.75 75.9792 252 77.6875C249.292 79.3958 247.125 81.7292 245.5 84.6875V124.375L255.687 126.125V134H223V126.125ZM351.312 134C350.937 132.167 350.646 130.521 350.437 129.062C350.229 127.604 350.083 126.146 350 124.688C347.625 127.729 344.646 130.271 341.062 132.312C337.521 134.312 333.729 135.312 329.687 135.312C322.646 135.312 317.292 133.604 313.625 130.188C309.958 126.729 308.125 121.875 308.125 115.625C308.125 109.208 310.708 104.271 315.875 100.812C321.083 97.3125 328.208 95.5625 337.25 95.5625H349.937V87.6875C349.937 83.7292 348.687 80.6042 346.187 78.3125C343.687 75.9792 340.208 74.8125 335.75 74.8125C332.667 74.8125 329.937 75.2083 327.562 76C325.229 76.7917 323.333 77.875 321.875 79.25L320.562 86.375H311.062V73.25C314.146 70.7917 317.875 68.8333 322.25 67.375C326.625 65.875 331.375 65.125 336.5 65.125C344.167 65.125 350.375 67.0833 355.125 71C359.875 74.9167 362.25 80.5208 362.25 87.8125V120.375C362.25 121.25 362.25 122.104 362.25 122.938C362.292 123.771 362.354 124.604 362.437 125.438L367.437 126.125V134H351.312ZM331.5 125C335.583 125 339.312 124.021 342.687 122.062C346.062 120.104 348.479 117.75 349.937 115V103.875H336.812C331.771 103.875 327.771 105.042 324.812 107.375C321.896 109.708 320.437 112.542 320.437 115.875C320.437 118.833 321.354 121.104 323.187 122.688C325.021 124.229 327.792 125 331.5 125ZM376.187 152.062L386.375 150.312V76.0625L376.187 74.3125V66.375H396.937L398.062 74.625C400.312 71.5417 403.042 69.1875 406.25 67.5625C409.5 65.9375 413.25 65.125 417.5 65.125C425.875 65.125 432.375 68.4583 437 75.125C441.667 81.75 444 90.5208 444 101.438V102.75C444 112.5 441.667 120.375 437 126.375C432.333 132.333 425.896 135.312 417.687 135.312C413.521 135.312 409.854 134.625 406.687 133.25C403.562 131.833 400.896 129.75 398.687 127V150.312L408.875 152.062V160H376.187V152.062ZM431.625 101.438C431.625 93.7292 430.125 87.4167 427.125 82.5C424.125 77.5833 419.667 75.125 413.75 75.125C410.25 75.125 407.25 75.9167 404.75 77.5C402.25 79.0833 400.229 81.25 398.687 84V116.938C400.229 119.729 402.229 121.896 404.687 123.438C407.187 124.938 410.25 125.688 413.875 125.688C419.708 125.688 424.125 123.562 427.125 119.312C430.125 115.062 431.625 109.542 431.625 102.75V101.438ZM453.375 126.125L463.562 124.375V76.0625L453.375 74.3125V66.375H474.562L475.437 76.4375C477.687 72.8542 480.5 70.0833 483.875 68.125C487.292 66.125 491.167 65.125 495.5 65.125C502.792 65.125 508.437 67.2708 512.437 71.5625C516.437 75.8125 518.437 82.3958 518.437 91.3125V124.375L528.625 126.125V134H495.937V126.125L506.125 124.375V91.5625C506.125 85.6042 504.937 81.375 502.562 78.875C500.229 76.375 496.646 75.125 491.812 75.125C488.271 75.125 485.125 75.9792 482.375 77.6875C479.667 79.3958 477.5 81.7292 475.875 84.6875V124.375L486.062 126.125V134H453.375V126.125ZM537 99.5625C537 89.5625 539.708 81.3333 545.125 74.875C550.542 68.375 557.896 65.125 567.187 65.125C576.521 65.125 583.896 68.3542 589.312 74.8125C594.771 81.2708 597.5 89.5208 597.5 99.5625V100.938C597.5 111.021 594.792 119.271 589.375 125.688C583.958 132.104 576.604 135.312 567.312 135.312C557.937 135.312 550.542 132.104 545.125 125.688C539.708 119.229 537 110.979 537 100.938V99.5625ZM549.312 100.938C549.312 108.104 550.812 114.021 553.812 118.688C556.854 123.354 561.354 125.688 567.312 125.688C573.146 125.688 577.583 123.354 580.625 118.688C583.667 114.021 585.187 108.104 585.187 100.938V99.5625C585.187 92.4792 583.667 86.5833 580.625 81.875C577.583 77.1667 573.104 74.8125 567.187 74.8125C561.271 74.8125 556.812 77.1667 553.812 81.875C550.812 86.5833 549.312 92.4792 549.312 99.5625V100.938ZM630.312 50.0625V66.375H643.125V75.5H630.312V116.562C630.312 119.729 630.958 121.958 632.25 123.25C633.583 124.542 635.333 125.188 637.5 125.188C638.583 125.188 639.792 125.104 641.125 124.938C642.5 124.729 643.646 124.521 644.562 124.312L646.25 132.75C645.083 133.5 643.375 134.104 641.125 134.562C638.875 135.062 636.625 135.312 634.375 135.312C629.375 135.312 625.396 133.812 622.437 130.812C619.479 127.771 618 123.021 618 116.562V75.5H607.312V66.375H618V50.0625H630.312ZM686.562 135.312C677.146 135.312 669.646 132.188 664.062 125.938C658.521 119.646 655.75 111.5 655.75 101.5V98.75C655.75 89.125 658.604 81.125 664.312 74.75C670.062 68.3333 676.854 65.125 684.687 65.125C693.771 65.125 700.646 67.875 705.312 73.375C710.021 78.875 712.375 86.2083 712.375 95.375V103.062H668.5L668.312 103.375C668.437 109.875 670.083 115.229 673.25 119.438C676.417 123.604 680.854 125.688 686.562 125.688C690.729 125.688 694.375 125.104 697.5 123.938C700.667 122.729 703.396 121.083 705.687 119L710.5 127C708.083 129.333 704.875 131.312 700.875 132.938C696.917 134.521 692.146 135.312 686.562 135.312ZM684.687 74.8125C680.562 74.8125 677.042 76.5625 674.125 80.0625C671.208 83.5208 669.417 87.875 668.75 93.125L668.875 93.4375H700.062V91.8125C700.062 86.9792 698.771 82.9375 696.187 79.6875C693.604 76.4375 689.771 74.8125 684.687 74.8125ZM776.312 87.625H767.062L765.062 79.5C763.562 78.0833 761.667 76.9583 759.375 76.125C757.125 75.25 754.562 74.8125 751.687 74.8125C747.312 74.8125 744.062 75.7708 741.937 77.6875C739.812 79.6042 738.75 81.9167 738.75 84.625C738.75 87.2917 739.687 89.3958 741.562 90.9375C743.437 92.4792 747.25 93.8542 753 95.0625C761.542 96.8958 767.896 99.3958 772.062 102.562C776.229 105.688 778.312 109.896 778.312 115.188C778.312 121.188 775.875 126.042 771 129.75C766.167 133.458 759.833 135.312 752 135.312C746.875 135.312 742.271 134.729 738.187 133.562C734.104 132.354 730.458 130.625 727.25 128.375L727.187 112.938H736.437L738.75 122C740.167 123.292 742.083 124.229 744.5 124.812C746.958 125.396 749.458 125.688 752 125.688C756.375 125.688 759.792 124.812 762.25 123.062C764.75 121.271 766 118.938 766 116.062C766 113.354 764.958 111.125 762.875 109.375C760.833 107.625 756.937 106.104 751.187 104.812C742.979 103.021 736.792 100.583 732.625 97.5C728.458 94.4167 726.375 90.25 726.375 85C726.375 79.5 728.708 74.8125 733.375 70.9375C738.083 67.0625 744.187 65.125 751.687 65.125C756.812 65.125 761.417 65.7917 765.5 67.125C769.583 68.4583 772.979 70.3125 775.687 72.6875L776.312 87.625ZM806.905 134H794.592V121.375H806.905V134Z" fill="black"/>
<path fill-rule="evenodd" clip-rule="evenodd" d="M142.754 136.563L148.146 32.3755L7.40755 25.0917L0.1018 166.253L104.341 171.648L142.752 136.56L142.754 136.563Z" fill="#003BDE"/>
<path fill-rule="evenodd" clip-rule="evenodd" d="M103.419 171.775C103.419 171.775 104.123 172.73 110.196 168.636C116.269 164.543 136.358 146.038 140.385 140.373C144.411 134.709 142.405 135.819 142.405 135.819C142.405 135.819 140.582 136.971 138.564 137.764C136.621 138.527 134.823 138.911 132.203 139.258C129.669 139.593 123.781 139.322 120.824 139.325C117.867 139.329 110.27 138.464 110.27 138.464C110.27 138.464 110.672 155.879 110.047 159.272C109.422 162.665 109.51 164.01 108.39 165.677C107.27 167.345 105.987 169.093 104.975 170.088C103.962 171.084 103.419 171.775 103.419 171.775Z" fill="url(#paint0_linear_203_11)"/>
<path fill-rule="evenodd" clip-rule="evenodd" d="M103.592 171.78C103.592 171.78 104.296 172.734 110.369 168.641C116.442 164.547 136.531 146.043 140.557 140.378C144.584 134.713 142.578 135.824 142.578 135.824C142.578 135.824 139.715 139.24 138.198 140.283C136.681 141.326 134.953 142.15 132.676 142.685C130.399 143.22 126.075 143.172 123.118 143.176C120.16 143.18 112.986 142.682 112.986 142.682C112.986 142.682 113.2 156.065 112.575 159.458C111.95 162.852 111.622 163.655 110.502 165.323C109.382 166.99 106.159 169.098 105.147 170.093C104.134 171.088 103.592 171.78 103.592 171.78Z" fill="#003BDE"/>
<path fill-rule="evenodd" clip-rule="evenodd" d="M103.543 171.73C103.543 171.73 104.247 172.684 110.319 168.591C116.392 164.497 136.481 145.992 140.508 140.328C144.535 134.663 142.529 135.773 142.529 135.773C142.529 135.773 139.666 139.19 138.149 140.233C136.632 141.276 134.904 142.1 132.627 142.635C130.35 143.17 126.026 143.122 123.068 143.126C120.111 143.13 112.937 142.631 112.937 142.631C112.937 142.631 113.151 156.015 112.526 159.408C111.901 162.801 111.572 163.605 110.452 165.272C109.332 166.94 106.11 169.047 105.098 170.043C104.085 171.038 103.543 171.73 103.543 171.73Z" fill="url(#paint1_linear_203_11)"/>
<defs>
<linearGradient id="paint0_linear_203_11" x1="131.383" y1="163.135" x2="108.223" y2="137.532" gradientUnits="userSpaceOnUse">
<stop/>
<stop offset="1" stop-opacity="0"/>
</linearGradient>
<linearGradient id="paint1_linear_203_11" x1="134.592" y1="164.612" x2="121.863" y2="151.676" gradientUnits="userSpaceOnUse">
<stop stop-color="#FFFF91"/>
<stop offset="1" stop-opacity="0"/>
</linearGradient>
</defs>
</svg>
